<mxfile host="app.diagrams.net" modified="2023-05-20T03:44:59.821Z" agent="Mozilla/5.0 (Windows NT 10.0; Win64; x64) AppleWebKit/537.36 (KHTML, like Gecko) Chrome/112.0.0.0 Safari/537.36" version="21.3.2" etag="ko9f24A3VSxxKXBJJudD" type="github">
  <diagram name="페이지-1" id="Doy3KeCVoG3qBeYkJOCb">
    <mxGraphModel>
      <root>
        <mxCell id="0" />
        <mxCell id="1" parent="0" />
      </root>
    </mxGraphModel>
  </diagram>
</mxfile>
